<?xml version="1.0" encoding="utf-8"?>
<!-- Generator: Adobe Illustrator 25.2.3, SVG Export Plug-In . SVG Version: 6.00 Build 0)  -->
<svg version="1.1" id="Layer_1" xmlns="http://www.w3.org/2000/svg" xmlns:xlink="http://www.w3.org/1999/xlink" x="0px" y="0px"
	 width="200px" height="200px" viewBox="0 0 200 200" style="enable-background:new 0 0 200 200;" xml:space="preserve">
<style type="text/css">
	.st0{fill:#231F20;}
</style>
<path class="st0" d="M135.14,19.05l4.15,6.23c5.54,8.32,13.69,14.41,23.09,17.26l7.04,2.14c28.71,8.71,39.97,44.36,21.72,68.77
	l-4.48,5.99c-5.97,7.99-9.09,17.86-8.82,27.93l0.2,7.55c0.82,30.79-28.65,52.82-56.85,42.5l-6.92-2.53
	c-9.23-3.38-19.31-3.38-28.54,0l-6.92,2.53c-28.2,10.32-57.68-11.72-56.85-42.5l0.2-7.55c0.27-10.08-2.85-19.94-8.82-27.93
	l-4.48-5.99C-9.39,89.05,1.87,53.39,30.58,44.68l7.04-2.14c9.4-2.85,17.55-8.95,23.09-17.26l4.15-6.23
	C81.78-6.35,118.22-6.35,135.14,19.05z"/>
</svg>
